<?xml version="1.0" encoding="iso-8859-1"?>
<!-- Generator: Adobe Illustrator 19.0.0, SVG Export Plug-In . SVG Version: 6.00 Build 0)  -->
<svg version="1.1" id="Capa_1" xmlns="http://www.w3.org/2000/svg" xmlns:xlink="http://www.w3.org/1999/xlink" x="0px" y="0px"
	 viewBox="0 0 511.998 511.998" style="enable-background:new 0 0 511.998 511.998;" xml:space="preserve">
<g>
	<g>
		<path d="M459.052,207.564l-52.797-44.869c-13.672-11.62-32.552-14.8-49.275-8.298c-7.44,2.892-14.123,7.621-19.327,13.675
			l-3.18,3.7l-22.337-22.337l6.003-7.369c5.311-6.519,4.331-16.109-2.188-21.419c-6.52-5.312-16.108-4.332-21.419,2.187
			l-31.593,38.781c-5.311,6.519-4.331,16.109,2.188,21.419c2.825,2.301,6.226,3.421,9.606,3.421c4.42,0,8.803-1.915,11.812-5.609
			l6.259-7.683l21.766,21.765l-2.077,2.417h-93.895l-56.242-29.441c-27.065-14.168-58.827-13.183-84.962,2.635
			c-26.135,15.819-41.738,43.501-41.738,74.05v11.398h440.046v-12.421C475.702,229.679,469.633,216.557,459.052,207.564z"/>
	</g>
</g>
<g>
	<g>
		<path d="M484.37,276.286H27.628C12.394,276.288,0,288.279,0,303.018c0,10.68,6.509,19.912,15.888,24.19
			c14.403-1.159,28.388-7.856,40.695-19.582c8.949-8.527,22.97-8.527,31.919-0.004c13.591,12.944,29.221,19.786,45.2,19.786
			c15.977,0,31.602-6.841,45.184-19.783c8.951-8.527,22.972-8.527,31.92-0.004c13.591,12.944,29.221,19.786,45.201,19.786
			c15.975,0,31.602-6.839,45.19-19.777c8.948-8.519,22.964-8.517,31.909,0c13.588,12.938,29.215,19.777,45.19,19.777
			c15.977,0,31.602-6.841,45.184-19.783c8.95-8.527,22.97-8.527,31.919-0.004c12.315,11.729,26.305,18.428,40.711,19.586
			c9.379-4.278,15.888-13.511,15.888-24.19C511.998,288.277,499.604,276.286,484.37,276.286z"/>
	</g>
</g>
<g>
	<g>
		<path d="M439.444,334.21c-18.233,15.496-39.247,23.647-61.147,23.647c-21.894,0-42.907-8.147-61.145-23.637
			c-18.238,15.489-39.251,23.637-61.145,23.637c-21.9,0-42.917-8.151-61.157-23.647c-18.233,15.495-39.247,23.647-61.147,23.647
			c-21.9,0-42.917-8.151-61.157-23.647c-18.234,15.496-39.247,23.647-61.147,23.647v36.916h489.203v-36.916
			C478.702,357.857,457.685,349.706,439.444,334.21z"/>
	</g>
</g>
<g>
</g>
<g>
</g>
<g>
</g>
<g>
</g>
<g>
</g>
<g>
</g>
<g>
</g>
<g>
</g>
<g>
</g>
<g>
</g>
<g>
</g>
<g>
</g>
<g>
</g>
<g>
</g>
<g>
</g>
</svg>
